<?xml version="1.0" encoding="utf-8"?>
<svg version="1.1" xmlns:xlink="http://www.w3.org/1999/xlink" width="147px" height="147px" xmlns="http://www.w3.org/2000/svg">
  <g transform="matrix(1 0 0 1 -426 -1403 )">
    <path d="M 427 1407  A 3 3 0 0 1 430 1404 L 569 1404  A 3 3 0 0 1 572 1407 L 572 1546  A 3 3 0 0 1 569 1549 L 430 1549  A 3 3 0 0 1 427 1546 L 427 1407  Z " fill-rule="nonzero" fill="#000000" stroke="none" fill-opacity="0.0196078431372549" />
    <path d="M 426.5 1407  A 3.5 3.5 0 0 1 430 1403.5 L 569 1403.5  A 3.5 3.5 0 0 1 572.5 1407 L 572.5 1546  A 3.5 3.5 0 0 1 569 1549.5 L 430 1549.5  A 3.5 3.5 0 0 1 426.5 1546 L 426.5 1407  Z " stroke-width="1" stroke-dasharray="9,4" stroke="#d9d9d9" fill="none" stroke-dashoffset="0.5" />
  </g>
</svg>