<?xml version="1.0" encoding="utf-8"?>
<svg version="1.1" xmlns:xlink="http://www.w3.org/1999/xlink" width="167px" height="10px" preserveAspectRatio="xMinYMid meet" viewBox="630 546  167 8" xmlns="http://www.w3.org/2000/svg">
  <path d="M 637.518415909612 526.665129161056  A 3 3 0 0 0 635.5 529.5 L 635.5 545  A 5 5 0 0 0 640.5 550.5 L 787 550.5  A 5 5 0 0 1 792.5 555.5 L 792.5 563  " stroke-width="1" stroke="#ff3399" fill="none" />
  <path d="M 635.975587045576 524.879093082396  A 3 3 0 0 0 632.975587045576 527.879093082396 A 3 3 0 0 0 635.975587045576 530.879093082396 A 3 3 0 0 0 638.975587045576 527.879093082396 A 3 3 0 0 0 635.975587045576 524.879093082396 Z " fill-rule="nonzero" fill="#ff3399" stroke="none" />
</svg>