<?xml version="1.0" encoding="utf-8"?>
<svg version="1.1" xmlns:xlink="http://www.w3.org/1999/xlink" width="10px" height="19px" preserveAspectRatio="xMidYMin meet" viewBox="923 2625  8 19" xmlns="http://www.w3.org/2000/svg">
  <path d="M 791 2666.5  L 865 2666.5  A 5 5 0 0 0 870.5 2661.5 L 870.5 2635  A 5 5 0 0 1 875.5 2630.5 L 922 2630.5  A 5 5 0 0 1 927.5 2635.5 L 927.5 2644  " stroke-width="1" stroke="#ff3399" fill="none" />
  <path d="M 793 2663.5  A 3 3 0 0 0 790 2666.5 A 3 3 0 0 0 793 2669.5 A 3 3 0 0 0 796 2666.5 A 3 3 0 0 0 793 2663.5 Z " fill-rule="nonzero" fill="#ff3399" stroke="none" />
</svg>