<?xml version="1.0" encoding="utf-8"?>
<svg version="1.1" xmlns:xlink="http://www.w3.org/1999/xlink" width="52px" height="10px" preserveAspectRatio="xMinYMid meet" viewBox="1635 193  52 8" xmlns="http://www.w3.org/2000/svg">
  <path d="M 1686 197.5  L 1645 197.5  A 5 5 0 0 0 1640.5 202.5 L 1640.5 363  A 5 5 0 0 0 1645.5 368.5 L 1662 368.5  A 1 1 0 0 1 1663.5 369.5 L 1663.5 370  " stroke-width="1" stroke="#ff3399" fill="none" />
  <path d="M 1684 194.5  A 3 3 0 0 0 1681 197.5 A 3 3 0 0 0 1684 200.5 A 3 3 0 0 0 1687 197.5 A 3 3 0 0 0 1684 194.5 Z " fill-rule="nonzero" fill="#ff3399" stroke="none" />
</svg>