<?xml version="1.0" encoding="utf-8"?>
<svg version="1.1" xmlns:xlink="http://www.w3.org/1999/xlink" width="480px" height="58px" xmlns="http://www.w3.org/2000/svg">
  <g transform="matrix(1 0 0 1 -374 -1851 )">
    <path d="M 375 1855  A 3 3 0 0 1 378 1852 L 850 1852  A 3 3 0 0 1 853 1855 L 853 1905  A 3 3 0 0 1 850 1908 L 378 1908  A 3 3 0 0 1 375 1905 L 375 1855  Z " fill-rule="nonzero" fill="#ffffff" stroke="none" fill-opacity="0" />
    <path d="M 374.5 1855  A 3.5 3.5 0 0 1 378 1851.5 L 850 1851.5  A 3.5 3.5 0 0 1 853.5 1855 L 853.5 1905  A 3.5 3.5 0 0 1 850 1908.5 L 378 1908.5  A 3.5 3.5 0 0 1 374.5 1905 L 374.5 1855  Z " stroke-width="1" stroke-dasharray="9,4" stroke="#d9d9d9" fill="none" stroke-dashoffset="0.5" />
  </g>
</svg>