<?xml version="1.0" encoding="utf-8"?>
<svg version="1.1" xmlns:xlink="http://www.w3.org/1999/xlink" width="10px" height="11px" preserveAspectRatio="xMidYMin meet" viewBox="957 1916  8 11" xmlns="http://www.w3.org/2000/svg">
  <path d="M 872.518415909612 1750.66512916106  A 3 3 0 0 0 870.5 1753.5 L 870.5 1916  A 5 5 0 0 0 875.5 1921.5 L 958 1921.5  A 3 3 0 0 1 961.5 1924.5 L 961.5 1927  " stroke-width="1" stroke="#ff3399" fill="none" />
  <path d="M 870.975587045576 1748.8790930824  A 3 3 0 0 0 867.975587045576 1751.8790930824 A 3 3 0 0 0 870.975587045576 1754.8790930824 A 3 3 0 0 0 873.975587045576 1751.8790930824 A 3 3 0 0 0 870.975587045576 1748.8790930824 Z " fill-rule="nonzero" fill="#ff3399" stroke="none" />
</svg>