<?xml version="1.0" encoding="utf-8"?>
<svg version="1.1" xmlns:xlink="http://www.w3.org/1999/xlink" width="641px" height="516px" xmlns="http://www.w3.org/2000/svg">
  <g transform="matrix(1 0 0 1 -1575 0 )">
    <path d="M 0.5 0  L 0.5 512.553444180523  C 0 513.92351543943  0.499290780142019 515  1.13475177304952 515.5  L 638.86524822695 515.5  C 639.500709219858 515  640 513.92351543943  640.5 512.553444180523  L 640.5 0  L 0.5 0  Z " fill-rule="nonzero" fill="#ffffff" stroke="none" transform="matrix(1 0 0 1 1575 0 )" />
    <path d="M 0.5 0  L 0.5 512.553444180523  C 0 513.92351543943  0.499290780142019 515  1.13475177304952 515.5  L 638.86524822695 515.5  C 639.500709219858 515  640 513.92351543943  640.5 512.553444180523  L 640.5 0  " stroke-width="1" stroke="#e9e9e9" fill="none" transform="matrix(1 0 0 1 1575 0 )" />
  </g>
</svg>