<?xml version="1.0" encoding="utf-8"?>
<svg version="1.1" xmlns:xlink="http://www.w3.org/1999/xlink" width="33px" height="10px" preserveAspectRatio="xMinYMid meet" viewBox="962 702  33 8" xmlns="http://www.w3.org/2000/svg">
  <path d="M 963 706.5  L 987 706.5  A 3 3 0 0 0 990.5 703.5 A 3 3 0 0 1 993.5 700.5 L 1060 700.5  A 5 5 0 0 1 1065.5 705.5 L 1065.5 712  " stroke-width="1" stroke="#ff3399" fill="none" />
  <path d="M 965 703.5  A 3 3 0 0 0 962 706.5 A 3 3 0 0 0 965 709.5 A 3 3 0 0 0 968 706.5 A 3 3 0 0 0 965 703.5 Z " fill-rule="nonzero" fill="#ff3399" stroke="none" />
</svg>