<?xml version="1.0" encoding="utf-8"?>
<svg version="1.1" xmlns:xlink="http://www.w3.org/1999/xlink" width="10px" height="181px" preserveAspectRatio="xMidYMin meet" viewBox="866 2768  8 181" xmlns="http://www.w3.org/2000/svg">
  <path d="M 872.518415909612 2773.66512916106  A 3 3 0 0 0 870.5 2776.5 L 870.5 2939  A 5 5 0 0 0 875.5 2944.5 L 958 2944.5  A 3 3 0 0 1 961.5 2947.5 L 961.5 2950  " stroke-width="1" stroke="#ff3399" fill="none" />
  <path d="M 870.975587045576 2771.8790930824  A 3 3 0 0 0 867.975587045576 2774.8790930824 A 3 3 0 0 0 870.975587045576 2777.8790930824 A 3 3 0 0 0 873.975587045576 2774.8790930824 A 3 3 0 0 0 870.975587045576 2771.8790930824 Z " fill-rule="nonzero" fill="#ff3399" stroke="none" />
</svg>